<svg xmlns="http://www.w3.org/2000/svg" xmlns:xlink="http://www.w3.org/1999/xlink" width="657" height="770" preserveAspectRatio="xMidYMid meet" viewBox="0 0 657 770" style="-ms-transform: rotate(360deg); -webkit-transform: rotate(360deg); transform: rotate(360deg);"><path d="M466 12l-39 55c61 29 105 83 110 146H121c5-63 48-117 109-146l-39-55c-2-4-1-8 2-10s7-1 10 2l40 58c26-10 55-16 86-16s59 6 86 16l40-58c2-3 6-4 9-2s4 6 2 10zM241 155c13 0 23-10 23-23 0-12-10-23-23-23-12 0-23 11-23 23 0 13 11 23 23 23zm178 0c13 0 23-10 23-23 0-12-10-23-23-23-12 0-23 11-23 23 0 13 11 23 23 23zM0 474V289c0-26 20-48 47-48 26 0 46 22 46 48v185c0 27-20 48-46 48-27 0-47-21-47-48zm563 0V289c0-26 21-48 47-48s47 22 47 48v185c0 27-21 48-47 48s-47-21-47-48zM122 581V242h416v339c0 20-17 37-37 37h-41v105c0 26-21 47-47 47s-47-21-47-47V618h-73v105c0 26-20 47-46 47-27 0-47-21-47-47V618h-42c-19 0-36-17-36-37z" fill="#9ec850"/><rect x="0" y="0" width="657" height="770" fill="rgba(0, 0, 0, 0)" /></svg>